<mxfile host="app.diagrams.net" agent="Mozilla/5.0 (Windows NT 10.0; Win64; x64) AppleWebKit/537.36 (KHTML, like Gecko) Chrome/127.0.0.0 Safari/537.36" version="24.7.7">
  <diagram name="Page-1" id="q3p_HqrXk2zwzrzoc3pM">
    <mxGraphModel dx="1434" dy="772" grid="1" gridSize="10" guides="1" tooltips="1" connect="1" arrows="1" fold="1" page="1" pageScale="1" pageWidth="850" pageHeight="1100" math="0" shadow="0">
      <root>
        <mxCell id="0" />
        <mxCell id="1" parent="0" />
        <mxCell id="oV3sE-7EyTVPXOHMJocb-1" value="guru" style="shape=umlActor;verticalLabelPosition=bottom;verticalAlign=top;html=1;outlineConnect=0;" vertex="1" parent="1">
          <mxGeometry x="90" y="200" width="80" height="150" as="geometry" />
        </mxCell>
        <mxCell id="oV3sE-7EyTVPXOHMJocb-3" value="" style="rounded=0;whiteSpace=wrap;html=1;" vertex="1" parent="1">
          <mxGeometry x="260" y="120" width="260" height="330" as="geometry" />
        </mxCell>
        <mxCell id="oV3sE-7EyTVPXOHMJocb-4" value="siswa&amp;nbsp;" style="shape=umlActor;verticalLabelPosition=bottom;verticalAlign=top;html=1;outlineConnect=0;" vertex="1" parent="1">
          <mxGeometry x="590" y="200" width="80" height="150" as="geometry" />
        </mxCell>
        <mxCell id="oV3sE-7EyTVPXOHMJocb-7" value="" style="ellipse;whiteSpace=wrap;html=1;" vertex="1" parent="1">
          <mxGeometry x="325" y="150" width="120" height="60" as="geometry" />
        </mxCell>
        <mxCell id="oV3sE-7EyTVPXOHMJocb-8" value="Login" style="text;strokeColor=none;align=center;fillColor=none;html=1;verticalAlign=middle;whiteSpace=wrap;rounded=0;" vertex="1" parent="1">
          <mxGeometry x="355" y="165" width="60" height="30" as="geometry" />
        </mxCell>
        <mxCell id="oV3sE-7EyTVPXOHMJocb-9" value="" style="ellipse;whiteSpace=wrap;html=1;" vertex="1" parent="1">
          <mxGeometry x="325" y="245" width="120" height="60" as="geometry" />
        </mxCell>
        <mxCell id="oV3sE-7EyTVPXOHMJocb-10" value="Daftar point" style="text;strokeColor=none;align=center;fillColor=none;html=1;verticalAlign=middle;whiteSpace=wrap;rounded=0;" vertex="1" parent="1">
          <mxGeometry x="350" y="260" width="70" height="30" as="geometry" />
        </mxCell>
        <mxCell id="oV3sE-7EyTVPXOHMJocb-11" value="" style="ellipse;whiteSpace=wrap;html=1;" vertex="1" parent="1">
          <mxGeometry x="330" y="340" width="120" height="60" as="geometry" />
        </mxCell>
        <mxCell id="oV3sE-7EyTVPXOHMJocb-12" value="Riwayat point" style="text;strokeColor=none;align=center;fillColor=none;html=1;verticalAlign=middle;whiteSpace=wrap;rounded=0;" vertex="1" parent="1">
          <mxGeometry x="350" y="352.5" width="80" height="35" as="geometry" />
        </mxCell>
        <mxCell id="oV3sE-7EyTVPXOHMJocb-14" value="" style="endArrow=none;html=1;rounded=0;entryX=0.042;entryY=0.333;entryDx=0;entryDy=0;entryPerimeter=0;" edge="1" parent="1" target="oV3sE-7EyTVPXOHMJocb-7">
          <mxGeometry width="50" height="50" relative="1" as="geometry">
            <mxPoint x="170" y="250" as="sourcePoint" />
            <mxPoint x="220" y="200" as="targetPoint" />
            <Array as="points">
              <mxPoint x="220" y="170" />
            </Array>
          </mxGeometry>
        </mxCell>
        <mxCell id="oV3sE-7EyTVPXOHMJocb-15" value="" style="endArrow=none;html=1;rounded=0;entryX=0.033;entryY=0.633;entryDx=0;entryDy=0;entryPerimeter=0;" edge="1" parent="1" target="oV3sE-7EyTVPXOHMJocb-9">
          <mxGeometry width="50" height="50" relative="1" as="geometry">
            <mxPoint x="170" y="250" as="sourcePoint" />
            <mxPoint x="210" y="250" as="targetPoint" />
          </mxGeometry>
        </mxCell>
        <mxCell id="oV3sE-7EyTVPXOHMJocb-16" value="" style="endArrow=none;html=1;rounded=0;exitX=0.958;exitY=0.333;exitDx=0;exitDy=0;exitPerimeter=0;" edge="1" parent="1" source="oV3sE-7EyTVPXOHMJocb-7">
          <mxGeometry width="50" height="50" relative="1" as="geometry">
            <mxPoint x="540" y="300" as="sourcePoint" />
            <mxPoint x="590" y="250" as="targetPoint" />
            <Array as="points">
              <mxPoint x="560" y="170" />
            </Array>
          </mxGeometry>
        </mxCell>
        <mxCell id="oV3sE-7EyTVPXOHMJocb-17" value="" style="endArrow=none;html=1;rounded=0;exitX=1;exitY=0.5;exitDx=0;exitDy=0;entryX=0;entryY=0.3333333333333333;entryDx=0;entryDy=0;entryPerimeter=0;" edge="1" parent="1" source="oV3sE-7EyTVPXOHMJocb-11" target="oV3sE-7EyTVPXOHMJocb-4">
          <mxGeometry width="50" height="50" relative="1" as="geometry">
            <mxPoint x="560" y="330" as="sourcePoint" />
            <mxPoint x="610" y="280" as="targetPoint" />
          </mxGeometry>
        </mxCell>
      </root>
    </mxGraphModel>
  </diagram>
</mxfile>
